#define line_width 40
#define line_height 24
static unsigned char line_bits[] = {
   0x00, 0x00, 0x00, 0x00, 0x00, 0x00, 0x00, 0x00, 0x00, 0x00, 0x00, 0x00,
   0x00, 0x00, 0x06, 0x00, 0x00, 0x00, 0x80, 0x07, 0x00, 0x00, 0x00, 0xe0,
   0x01, 0x00, 0x00, 0x00, 0x78, 0x00, 0x00, 0x00, 0x00, 0x1f, 0x00, 0x00,
   0x00, 0xc0, 0x07, 0x00, 0x00, 0x00, 0xf0, 0x00, 0x00, 0x00, 0x00, 0x3c,
   0x00, 0x00, 0x00, 0x00, 0x0f, 0x00, 0x00, 0x00, 0xe0, 0x03, 0x00, 0x00,
   0x00, 0xf8, 0x00, 0x00, 0x00, 0x00, 0x1e, 0x00, 0x00, 0x00, 0x80, 0x07,
   0x00, 0x00, 0x00, 0xe0, 0x01, 0x00, 0x00, 0x00, 0x60, 0x00, 0x00, 0x00,
   0x00, 0x00, 0x00, 0x00, 0x00, 0x00, 0x00, 0x88, 0xd2, 0x01, 0x00, 0x00,
   0x88, 0x56, 0x00, 0x00, 0x00, 0x88, 0xde, 0x00, 0x00, 0x00, 0x88, 0x5a,
   0x00, 0x00, 0x00, 0xb8, 0xd2, 0x01, 0x00, 0x00, 0x00, 0x00, 0x00, 0x00};
