#define point_width 40
#define point_height 24
static unsigned char point_bits[] = {
   0x00, 0x00, 0x00, 0x00, 0x00, 0x00, 0x00, 0x00, 0x00, 0x00, 0x00, 0x00,
   0x00, 0x00, 0x00, 0x00, 0x00, 0x00, 0x00, 0x00, 0x00, 0x00, 0x00, 0x00,
   0x00, 0x00, 0x00, 0x0e, 0x00, 0x00, 0x00, 0x00, 0x1f, 0x00, 0x00, 0x00,
   0x80, 0x3f, 0x00, 0x00, 0x00, 0x80, 0x3f, 0x00, 0x00, 0x00, 0x80, 0x3f,
   0x00, 0x00, 0x00, 0x00, 0x1f, 0x00, 0x00, 0x00, 0x00, 0x0e, 0x00, 0x00,
   0x00, 0x00, 0x00, 0x00, 0x00, 0x00, 0x00, 0x00, 0x00, 0x00, 0x00, 0x00,
   0x00, 0x00, 0x00, 0x00, 0x00, 0x00, 0x00, 0x00, 0x00, 0x00, 0x00, 0x00,
   0x00, 0x00, 0x00, 0x00, 0x00, 0x00, 0x00, 0xb8, 0x2b, 0x1d, 0x00, 0x00,
   0xa8, 0x6a, 0x09, 0x00, 0x00, 0xb8, 0xea, 0x09, 0x00, 0x00, 0x88, 0xaa,
   0x09, 0x00, 0x00, 0x88, 0x2b, 0x09, 0x00, 0x00, 0x00, 0x00, 0x00, 0x00};
