#define text_width 40
#define text_height 24
static unsigned char text_bits[] = {
   0x00, 0x00, 0x00, 0x00, 0x00, 0x00, 0x00, 0x00, 0x00, 0x00, 0x00, 0x00,
   0x3c, 0xe0, 0x00, 0x00, 0x04, 0x44, 0x10, 0x01, 0x00, 0x04, 0x84, 0x08,
   0x02, 0x00, 0x0a, 0x84, 0x04, 0x00, 0x00, 0x0a, 0x84, 0x04, 0x00, 0x00,
   0x11, 0x44, 0x04, 0x00, 0x00, 0x11, 0x3c, 0x04, 0x00, 0x80, 0x20, 0x3c,
   0x04, 0x00, 0x80, 0x20, 0x44, 0x04, 0x00, 0x80, 0x3f, 0x84, 0x04, 0x00,
   0x40, 0x40, 0x84, 0x04, 0x00, 0x40, 0x40, 0x84, 0x08, 0x02, 0x20, 0x80,
   0x44, 0x10, 0x01, 0x20, 0x80, 0x3c, 0xe0, 0x00, 0x00, 0x00, 0x00, 0x00,
   0x00, 0x00, 0x00, 0x00, 0x00, 0x00, 0x00, 0x70, 0x57, 0x07, 0x00, 0x00,
   0x20, 0x51, 0x02, 0x00, 0x00, 0x20, 0x23, 0x02, 0x00, 0x00, 0x20, 0x51,
   0x02, 0x00, 0x00, 0x20, 0x57, 0x02, 0x00, 0x00, 0x00, 0x00, 0x00, 0x00};
